<mxfile host="app.diagrams.net" modified="2024-01-03T10:03:55.135Z" agent="Mozilla/5.0 (Windows NT 10.0; Win64; x64) AppleWebKit/537.36 (KHTML, like Gecko) Chrome/120.0.0.0 Safari/537.36" etag="DAu1elXi2rc6cjAtN_kF" version="22.1.16" type="device">
  <diagram name="Seite-1" id="i_URGspRJ9myoBnWHuoP">
    <mxGraphModel dx="2249" dy="811" grid="1" gridSize="10" guides="1" tooltips="1" connect="1" arrows="1" fold="1" page="1" pageScale="1" pageWidth="850" pageHeight="1100" math="0" shadow="0">
      <root>
        <mxCell id="0" />
        <mxCell id="1" parent="0" />
        <mxCell id="OLCDvtCxSqMUpOQPZK93-1" value="E" style="ellipse;whiteSpace=wrap;html=1;" vertex="1" parent="1">
          <mxGeometry x="80" y="690" width="70" height="70" as="geometry" />
        </mxCell>
        <mxCell id="OLCDvtCxSqMUpOQPZK93-2" value="A" style="ellipse;whiteSpace=wrap;html=1;" vertex="1" parent="1">
          <mxGeometry x="210" y="330" width="70" height="70" as="geometry" />
        </mxCell>
        <mxCell id="OLCDvtCxSqMUpOQPZK93-66" style="rounded=0;orthogonalLoop=1;jettySize=auto;html=1;" edge="1" parent="1" source="OLCDvtCxSqMUpOQPZK93-3" target="OLCDvtCxSqMUpOQPZK93-19">
          <mxGeometry relative="1" as="geometry" />
        </mxCell>
        <mxCell id="OLCDvtCxSqMUpOQPZK93-3" value="C" style="ellipse;whiteSpace=wrap;html=1;" vertex="1" parent="1">
          <mxGeometry x="-80" y="690" width="70" height="70" as="geometry" />
        </mxCell>
        <mxCell id="OLCDvtCxSqMUpOQPZK93-64" style="rounded=0;orthogonalLoop=1;jettySize=auto;html=1;entryX=0.5;entryY=0;entryDx=0;entryDy=0;" edge="1" parent="1" source="OLCDvtCxSqMUpOQPZK93-4" target="OLCDvtCxSqMUpOQPZK93-17">
          <mxGeometry relative="1" as="geometry" />
        </mxCell>
        <mxCell id="OLCDvtCxSqMUpOQPZK93-67" style="rounded=0;orthogonalLoop=1;jettySize=auto;html=1;entryX=0.5;entryY=0;entryDx=0;entryDy=0;" edge="1" parent="1" source="OLCDvtCxSqMUpOQPZK93-4" target="OLCDvtCxSqMUpOQPZK93-11">
          <mxGeometry relative="1" as="geometry" />
        </mxCell>
        <mxCell id="OLCDvtCxSqMUpOQPZK93-68" style="rounded=0;orthogonalLoop=1;jettySize=auto;html=1;entryX=0.5;entryY=0;entryDx=0;entryDy=0;" edge="1" parent="1" source="OLCDvtCxSqMUpOQPZK93-4" target="OLCDvtCxSqMUpOQPZK93-13">
          <mxGeometry relative="1" as="geometry" />
        </mxCell>
        <mxCell id="OLCDvtCxSqMUpOQPZK93-4" value="G" style="ellipse;whiteSpace=wrap;html=1;" vertex="1" parent="1">
          <mxGeometry x="400" y="690" width="70" height="70" as="geometry" />
        </mxCell>
        <mxCell id="OLCDvtCxSqMUpOQPZK93-5" value="M" style="ellipse;whiteSpace=wrap;html=1;" vertex="1" parent="1">
          <mxGeometry x="850" y="690" width="70" height="70" as="geometry" />
        </mxCell>
        <mxCell id="OLCDvtCxSqMUpOQPZK93-6" value="L" style="ellipse;whiteSpace=wrap;html=1;" vertex="1" parent="1">
          <mxGeometry x="740" y="690" width="70" height="70" as="geometry" />
        </mxCell>
        <mxCell id="OLCDvtCxSqMUpOQPZK93-60" style="rounded=0;orthogonalLoop=1;jettySize=auto;html=1;entryX=0.5;entryY=0;entryDx=0;entryDy=0;" edge="1" parent="1" source="OLCDvtCxSqMUpOQPZK93-7" target="OLCDvtCxSqMUpOQPZK93-55">
          <mxGeometry relative="1" as="geometry" />
        </mxCell>
        <mxCell id="OLCDvtCxSqMUpOQPZK93-61" style="rounded=0;orthogonalLoop=1;jettySize=auto;html=1;entryX=0.5;entryY=0;entryDx=0;entryDy=0;" edge="1" parent="1" source="OLCDvtCxSqMUpOQPZK93-7" target="OLCDvtCxSqMUpOQPZK93-9">
          <mxGeometry relative="1" as="geometry" />
        </mxCell>
        <mxCell id="OLCDvtCxSqMUpOQPZK93-62" style="rounded=0;orthogonalLoop=1;jettySize=auto;html=1;entryX=0.5;entryY=0;entryDx=0;entryDy=0;" edge="1" parent="1" source="OLCDvtCxSqMUpOQPZK93-7" target="OLCDvtCxSqMUpOQPZK93-10">
          <mxGeometry relative="1" as="geometry" />
        </mxCell>
        <mxCell id="OLCDvtCxSqMUpOQPZK93-7" value="O" style="ellipse;whiteSpace=wrap;html=1;" vertex="1" parent="1">
          <mxGeometry x="1060" y="690" width="70" height="70" as="geometry" />
        </mxCell>
        <mxCell id="OLCDvtCxSqMUpOQPZK93-8" value="N" style="ellipse;whiteSpace=wrap;html=1;" vertex="1" parent="1">
          <mxGeometry x="960" y="690" width="70" height="70" as="geometry" />
        </mxCell>
        <mxCell id="OLCDvtCxSqMUpOQPZK93-9" value="P" style="ellipse;whiteSpace=wrap;html=1;" vertex="1" parent="1">
          <mxGeometry x="970" y="890" width="70" height="70" as="geometry" />
        </mxCell>
        <mxCell id="OLCDvtCxSqMUpOQPZK93-10" value="Q" style="ellipse;whiteSpace=wrap;html=1;" vertex="1" parent="1">
          <mxGeometry x="1060" y="890" width="70" height="70" as="geometry" />
        </mxCell>
        <mxCell id="OLCDvtCxSqMUpOQPZK93-11" value="J" style="ellipse;whiteSpace=wrap;html=1;" vertex="1" parent="1">
          <mxGeometry x="520" y="890" width="70" height="70" as="geometry" />
        </mxCell>
        <mxCell id="OLCDvtCxSqMUpOQPZK93-12" value="T" style="ellipse;whiteSpace=wrap;html=1;" vertex="1" parent="1">
          <mxGeometry x="520" y="690" width="70" height="70" as="geometry" />
        </mxCell>
        <mxCell id="OLCDvtCxSqMUpOQPZK93-13" value="H" style="ellipse;whiteSpace=wrap;html=1;" vertex="1" parent="1">
          <mxGeometry x="300" y="890" width="70" height="70" as="geometry" />
        </mxCell>
        <mxCell id="OLCDvtCxSqMUpOQPZK93-14" value="F" style="ellipse;whiteSpace=wrap;html=1;" vertex="1" parent="1">
          <mxGeometry x="260" y="690" width="70" height="70" as="geometry" />
        </mxCell>
        <mxCell id="OLCDvtCxSqMUpOQPZK93-46" style="rounded=0;orthogonalLoop=1;jettySize=auto;html=1;exitX=0.5;exitY=1;exitDx=0;exitDy=0;entryX=0.5;entryY=0;entryDx=0;entryDy=0;" edge="1" parent="1" source="OLCDvtCxSqMUpOQPZK93-15" target="OLCDvtCxSqMUpOQPZK93-4">
          <mxGeometry relative="1" as="geometry" />
        </mxCell>
        <mxCell id="OLCDvtCxSqMUpOQPZK93-47" style="rounded=0;orthogonalLoop=1;jettySize=auto;html=1;exitX=0.5;exitY=1;exitDx=0;exitDy=0;" edge="1" parent="1" source="OLCDvtCxSqMUpOQPZK93-15" target="OLCDvtCxSqMUpOQPZK93-3">
          <mxGeometry relative="1" as="geometry" />
        </mxCell>
        <mxCell id="OLCDvtCxSqMUpOQPZK93-48" style="rounded=0;orthogonalLoop=1;jettySize=auto;html=1;entryX=0.5;entryY=0;entryDx=0;entryDy=0;exitX=0.5;exitY=1;exitDx=0;exitDy=0;" edge="1" parent="1" source="OLCDvtCxSqMUpOQPZK93-15" target="OLCDvtCxSqMUpOQPZK93-1">
          <mxGeometry relative="1" as="geometry" />
        </mxCell>
        <mxCell id="OLCDvtCxSqMUpOQPZK93-49" style="rounded=0;orthogonalLoop=1;jettySize=auto;html=1;entryX=0.5;entryY=0;entryDx=0;entryDy=0;exitX=0.5;exitY=1;exitDx=0;exitDy=0;" edge="1" parent="1" source="OLCDvtCxSqMUpOQPZK93-15" target="OLCDvtCxSqMUpOQPZK93-14">
          <mxGeometry relative="1" as="geometry" />
        </mxCell>
        <mxCell id="OLCDvtCxSqMUpOQPZK93-15" value="B" style="ellipse;whiteSpace=wrap;html=1;" vertex="1" parent="1">
          <mxGeometry x="210" y="330" width="70" height="70" as="geometry" />
        </mxCell>
        <mxCell id="OLCDvtCxSqMUpOQPZK93-56" style="edgeStyle=orthogonalEdgeStyle;rounded=0;orthogonalLoop=1;jettySize=auto;html=1;entryX=0.5;entryY=0;entryDx=0;entryDy=0;" edge="1" parent="1" source="OLCDvtCxSqMUpOQPZK93-16" target="OLCDvtCxSqMUpOQPZK93-12">
          <mxGeometry relative="1" as="geometry" />
        </mxCell>
        <mxCell id="OLCDvtCxSqMUpOQPZK93-16" value="S" style="ellipse;whiteSpace=wrap;html=1;" vertex="1" parent="1">
          <mxGeometry x="520" y="330" width="70" height="70" as="geometry" />
        </mxCell>
        <mxCell id="OLCDvtCxSqMUpOQPZK93-17" value="I" style="ellipse;whiteSpace=wrap;html=1;" vertex="1" parent="1">
          <mxGeometry x="400" y="890" width="70" height="70" as="geometry" />
        </mxCell>
        <mxCell id="OLCDvtCxSqMUpOQPZK93-51" style="rounded=0;orthogonalLoop=1;jettySize=auto;html=1;entryX=0.5;entryY=0;entryDx=0;entryDy=0;" edge="1" parent="1" source="OLCDvtCxSqMUpOQPZK93-18" target="OLCDvtCxSqMUpOQPZK93-6">
          <mxGeometry relative="1" as="geometry" />
        </mxCell>
        <mxCell id="OLCDvtCxSqMUpOQPZK93-52" style="rounded=0;orthogonalLoop=1;jettySize=auto;html=1;exitX=0.5;exitY=1;exitDx=0;exitDy=0;entryX=0.5;entryY=0;entryDx=0;entryDy=0;" edge="1" parent="1" source="OLCDvtCxSqMUpOQPZK93-18" target="OLCDvtCxSqMUpOQPZK93-5">
          <mxGeometry relative="1" as="geometry" />
        </mxCell>
        <mxCell id="OLCDvtCxSqMUpOQPZK93-53" style="rounded=0;orthogonalLoop=1;jettySize=auto;html=1;entryX=0.5;entryY=0;entryDx=0;entryDy=0;" edge="1" parent="1" source="OLCDvtCxSqMUpOQPZK93-18" target="OLCDvtCxSqMUpOQPZK93-8">
          <mxGeometry relative="1" as="geometry" />
        </mxCell>
        <mxCell id="OLCDvtCxSqMUpOQPZK93-54" style="rounded=0;orthogonalLoop=1;jettySize=auto;html=1;entryX=0.5;entryY=0;entryDx=0;entryDy=0;" edge="1" parent="1" source="OLCDvtCxSqMUpOQPZK93-18" target="OLCDvtCxSqMUpOQPZK93-7">
          <mxGeometry relative="1" as="geometry" />
        </mxCell>
        <mxCell id="OLCDvtCxSqMUpOQPZK93-18" value="K" style="ellipse;whiteSpace=wrap;html=1;" vertex="1" parent="1">
          <mxGeometry x="890" y="330" width="70" height="70" as="geometry" />
        </mxCell>
        <mxCell id="OLCDvtCxSqMUpOQPZK93-19" value="D" style="ellipse;whiteSpace=wrap;html=1;" vertex="1" parent="1">
          <mxGeometry x="-90" y="890" width="70" height="70" as="geometry" />
        </mxCell>
        <mxCell id="OLCDvtCxSqMUpOQPZK93-57" style="rounded=0;orthogonalLoop=1;jettySize=auto;html=1;entryX=0.5;entryY=0;entryDx=0;entryDy=0;" edge="1" parent="1" source="OLCDvtCxSqMUpOQPZK93-20" target="OLCDvtCxSqMUpOQPZK93-15">
          <mxGeometry relative="1" as="geometry" />
        </mxCell>
        <mxCell id="OLCDvtCxSqMUpOQPZK93-58" style="edgeStyle=orthogonalEdgeStyle;rounded=0;orthogonalLoop=1;jettySize=auto;html=1;entryX=0.5;entryY=0;entryDx=0;entryDy=0;" edge="1" parent="1" source="OLCDvtCxSqMUpOQPZK93-20" target="OLCDvtCxSqMUpOQPZK93-16">
          <mxGeometry relative="1" as="geometry" />
        </mxCell>
        <mxCell id="OLCDvtCxSqMUpOQPZK93-59" style="rounded=0;orthogonalLoop=1;jettySize=auto;html=1;entryX=0.5;entryY=0;entryDx=0;entryDy=0;" edge="1" parent="1" source="OLCDvtCxSqMUpOQPZK93-20" target="OLCDvtCxSqMUpOQPZK93-18">
          <mxGeometry relative="1" as="geometry" />
        </mxCell>
        <mxCell id="OLCDvtCxSqMUpOQPZK93-20" value="A" style="ellipse;whiteSpace=wrap;html=1;" vertex="1" parent="1">
          <mxGeometry x="520" y="60" width="70" height="70" as="geometry" />
        </mxCell>
        <mxCell id="OLCDvtCxSqMUpOQPZK93-21" style="edgeStyle=orthogonalEdgeStyle;rounded=0;orthogonalLoop=1;jettySize=auto;html=1;exitX=0.5;exitY=1;exitDx=0;exitDy=0;" edge="1" parent="1" source="OLCDvtCxSqMUpOQPZK93-5" target="OLCDvtCxSqMUpOQPZK93-5">
          <mxGeometry relative="1" as="geometry" />
        </mxCell>
        <mxCell id="OLCDvtCxSqMUpOQPZK93-55" value="R" style="ellipse;whiteSpace=wrap;html=1;" vertex="1" parent="1">
          <mxGeometry x="1150" y="890" width="70" height="70" as="geometry" />
        </mxCell>
      </root>
    </mxGraphModel>
  </diagram>
</mxfile>
